{
  "accessors": [
    {
      "bufferView": 2,
      "componentType": 5126,
      "count": 6559,
      "max": [
        3.375126600265503,
        3.375126600265503,
        3.375124454498291
      ],
      "min": [
        -3.375121593475342,
        -3.375126600265503,
        -3.375119686126709
      ],
      "type": "VEC3"
    },
    {
      "bufferView": 2,
      "byteOffset": 78708,
      "componentType": 5126,
      "count": 6559,
      "max": [
        1.0,
        1.0,
        1.0
      ],
      "min": [
        -1.0,
        -1.0,
        -1.0
      ],
      "type": "VEC3"
    },
    {
      "bufferView": 1,
      "componentType": 5126,
      "count": 6559,
      "max": [
        0.9999993443489075,
        1.0
      ],
      "min": [
        0.0,
        0.0
      ],
      "type": "VEC2"
    },
    {
      "bufferView": 0,
      "componentType": 5125,
      "count": 37920,
      "type": "SCALAR"
    },
    {
      "bufferView": 2,
      "byteOffset": 157416,
      "componentType": 5126,
      "count": 728,
      "max": [
        0.2035531997680664,
        2.700150489807129,
        0.047897160053253174
      ],
      "min": [
        -0.1576223373413086,
        2.1343088150024414,
        -0.047897160053253174
      ],
      "type": "VEC3"
    },
    {
      "bufferView": 2,
      "byteOffset": 166152,
      "componentType": 5126,
      "count": 728,
      "max": [
        0.9999300241470337,
        0.9976966381072998,
        1.0
      ],
      "min": [
        -0.9999925494194031,
        -0.9999923706054688,
        -1.0
      ],
      "type": "VEC3"
    },
    {
      "bufferView": 1,
      "byteOffset": 52472,
      "componentType": 5126,
      "count": 728,
      "max": [
        1.0,
        1.0
      ],
      "min": [
        0.0,
        0.0
      ],
      "type": "VEC2"
    },
    {
      "bufferView": 0,
      "byteOffset": 151680,
      "componentType": 5125,
      "count": 2208,
      "type": "SCALAR"
    },
    {
      "bufferView": 2,
      "byteOffset": 174888,
      "componentType": 5126,
      "count": 434,
      "max": [
        0.3361072540283203,
        2.237140655517578,
        0.047897160053253174
      ],
      "min": [
        -0.2868490219116211,
        1.9830288887023926,
        -0.047897160053253174
      ],
      "type": "VEC3"
    },
    {
      "bufferView": 2,
      "byteOffset": 180096,
      "componentType": 5126,
      "count": 434,
      "max": [
        0.9975115656852722,
        0.9995574355125427,
        1.0
      ],
      "min": [
        -0.9957252144813538,
        -0.9999955296516418,
        -1.0
      ],
      "type": "VEC3"
    },
    {
      "bufferView": 1,
      "byteOffset": 58296,
      "componentType": 5126,
      "count": 434,
      "max": [
        1.0,
        1.0
      ],
      "min": [
        0.0,
        0.0
      ],
      "type": "VEC2"
    },
    {
      "bufferView": 0,
      "byteOffset": 160512,
      "componentType": 5125,
      "count": 1644,
      "type": "SCALAR"
    },
    {
      "bufferView": 2,
      "byteOffset": 185304,
      "componentType": 5126,
      "count": 3160,
      "max": [
        0.4225759506225586,
        1.9420175552368164,
        0.047897160053253174
      ],
      "min": [
        -0.4225759506225586,
        -0.10516667366027832,
        -0.047897160053253174
      ],
      "type": "VEC3"
    },
    {
      "bufferView": 2,
      "byteOffset": 223224,
      "componentType": 5126,
      "count": 3160,
      "max": [
        0.9999977946281433,
        0.9999997019767761,
        1.0
      ],
      "min": [
        -0.9999244213104248,
        -0.9999933242797852,
        -1.0
      ],
      "type": "VEC3"
    },
    {
      "bufferView": 1,
      "byteOffset": 61768,
      "componentType": 5126,
      "count": 3160,
      "max": [
        1.0,
        1.0
      ],
      "min": [
        0.0,
        0.0
      ],
      "type": "VEC2"
    },
    {
      "bufferView": 0,
      "byteOffset": 167088,
      "componentType": 5125,
      "count": 12660,
      "type": "SCALAR"
    },
    {
      "bufferView": 2,
      "byteOffset": 261144,
      "componentType": 5126,
      "count": 18152,
      "max": [
        -8.64754867553711,
        4.638820171356201,
        4.102510452270508
      ],
      "min": [
        -13.744795799255371,
        2.5884933471679688,
        -1.0322397947311401
      ],
      "type": "VEC3"
    },
    {
      "bufferView": 2,
      "byteOffset": 478968,
      "componentType": 5126,
      "count": 18152,
      "max": [
        0.9986176490783691,
        1.0,
        1.0
      ],
      "min": [
        -0.998563826084137,
        -1.0,
        -1.0
      ],
      "type": "VEC3"
    },
    {
      "bufferView": 1,
      "byteOffset": 87048,
      "componentType": 5126,
      "count": 18152,
      "max": [
        570578.625,
        89940.3046875
      ],
      "min": [
        -687369.0625,
        -84559.0625
      ],
      "type": "VEC2"
    },
    {
      "bufferView": 0,
      "byteOffset": 217728,
      "componentType": 5125,
      "count": 65592,
      "type": "SCALAR"
    },
    {
      "bufferView": 2,
      "byteOffset": 696792,
      "componentType": 5126,
      "count": 1964,
      "max": [
        -9.370338439941406,
        3.9836769104003906,
        3.654897451400757
      ],
      "min": [
        -9.759994506835938,
        3.582042694091797,
        3.3160126209259033
      ],
      "type": "VEC3"
    },
    {
      "bufferView": 2,
      "byteOffset": 720360,
      "componentType": 5126,
      "count": 1964,
      "max": [
        0.8031746745109558,
        1.0,
        0.8209164142608643
      ],
      "min": [
        -0.8218012452125549,
        -0.9998586177825928,
        -0.8209139704704285
      ],
      "type": "VEC3"
    },
    {
      "bufferView": 1,
      "byteOffset": 232264,
      "componentType": 5126,
      "count": 1964,
      "max": [
        1.0,
        1.0
      ],
      "min": [
        0.0,
        0.0
      ],
      "type": "VEC2"
    },
    {
      "bufferView": 0,
      "byteOffset": 480096,
      "componentType": 5125,
      "count": 8928,
      "type": "SCALAR"
    },
    {
      "bufferView": 3,
      "componentType": 5126,
      "count": 116,
      "max": [
        2.4583332538604736
      ],
      "min": [
        0.0416666679084301
      ],
      "type": "SCALAR"
    },
    {
      "bufferView": 4,
      "componentType": 5126,
      "count": 116,
      "max": [
        8.345847393032143e-17,
        0.9999209046363831,
        8.345847393032143e-17,
        1.0
      ],
      "min": [
        -8.659532810157973e-17,
        -0.8647704720497131,
        -8.659532810157973e-17,
        -0.49288707971572876
      ],
      "type": "VEC4"
    }
  ],
  "animations": [
    {
      "channels": [
        {
          "sampler": 0,
          "target": {
            "node": 71,
            "path": "rotation"
          }
        }
      ],
      "name": "TaraSep2",
      "samplers": [
        {
          "input": 24,
          "interpolation": "LINEAR",
          "output": 25
        }
      ]
    }
  ],
  "asset": {
    "extras": {
      "author": "katherinemunro33 (https://sketchfab.com/katherinemunro33)",
      "license": "CC-BY-4.0 (http://creativecommons.org/licenses/by/4.0/)",
      "source": "https://sketchfab.com/3d-models/green-tara-mantra-fa07c9b2f48c46d29b2b0e96fa9afa5d",
      "title": "Green Tara Mantra"
    },
    "generator": "Sketchfab-12.68.0",
    "version": "2.0"
  },
  "bufferViews": [
    {
      "buffer": 0,
      "byteLength": 515808,
      "name": "floatBufferViews",
      "target": 34963
    },
    {
      "buffer": 0,
      "byteLength": 247976,
      "byteOffset": 515808,
      "byteStride": 8,
      "name": "floatBufferViews",
      "target": 34962
    },
    {
      "buffer": 0,
      "byteLength": 743928,
      "byteOffset": 763784,
      "byteStride": 12,
      "name": "floatBufferViews",
      "target": 34962
    },
    {
      "buffer": 0,
      "byteLength": 464,
      "byteOffset": 1507712,
      "name": "floatBufferViews"
    },
    {
      "buffer": 0,
      "byteLength": 1856,
      "byteOffset": 1508176,
      "byteStride": 16,
      "name": "floatBufferViews"
    }
  ],
  "buffers": [
    {
      "byteLength": 1510032,
      "uri": "scene.bin"
    }
  ],
  "extensionsRequired": [
    "KHR_materials_pbrSpecularGlossiness"
  ],
  "extensionsUsed": [
    "KHR_materials_pbrSpecularGlossiness"
  ],
  "materials": [
    {
      "alphaMode": "BLEND",
      "doubleSided": true,
      "emissiveFactor": [
        1.0,
        1.0,
        1.0
      ],
      "extensions": {
        "KHR_materials_pbrSpecularGlossiness": {
          "diffuseFactor": [
            1.0,
            1.0,
            1.0,
            0.4225889224
          ],
          "glossinessFactor": 0.991939677,
          "specularFactor": [
            0.0,
            0.0,
            0.0
          ]
        }
      },
      "name": "aiStandardMoon"
    },
    {
      "doubleSided": true,
      "extensions": {
        "KHR_materials_pbrSpecularGlossiness": {
          "diffuseFactor": [
            0.0036626792,
            0.775209618,
            0.0012244244,
            1.0
          ],
          "glossinessFactor": 0.4,
          "specularFactor": [
            0.05,
            0.05,
            0.05
          ]
        }
      },
      "name": "aiSGreenMain"
    },
    {
      "doubleSided": true,
      "emissiveFactor": [
        0.03507479286515533,
        0.423440639794871,
        0.0036510499942909507
      ],
      "extensions": {
        "KHR_materials_pbrSpecularGlossiness": {
          "diffuseFactor": [
            0.0008592186,
            0.1055604129,
            0.0167779906,
            1.0
          ],
          "glossinessFactor": 0.6,
          "specularFactor": [
            0.0,
            0.0,
            0.0
          ]
        }
      },
      "name": "aiStandardGreen"
    }
  ],
  "meshes": [
    {
      "name": "PetalLowPoly:pSphere1_aiStandardMoon_0",
      "primitives": [
        {
          "attributes": {
            "NORMAL": 1,
            "POSITION": 0,
            "TEXCOORD_0": 2
          },
          "indices": 3,
          "material": 0,
          "mode": 4
        }
      ]
    },
    {
      "name": "planarTrimmedSurface3_aiSGreenMain_0",
      "primitives": [
        {
          "attributes": {
            "NORMAL": 5,
            "POSITION": 4,
            "TEXCOORD_0": 6
          },
          "indices": 7,
          "material": 1,
          "mode": 4
        }
      ]
    },
    {
      "name": "planarTrimmedSurface4_aiSGreenMain_0",
      "primitives": [
        {
          "attributes": {
            "NORMAL": 9,
            "POSITION": 8,
            "TEXCOORD_0": 10
          },
          "indices": 11,
          "material": 1,
          "mode": 4
        }
      ]
    },
    {
      "name": "planarTrimmedSurface5_aiSGreenMain_0",
      "primitives": [
        {
          "attributes": {
            "NORMAL": 13,
            "POSITION": 12,
            "TEXCOORD_0": 14
          },
          "indices": 15,
          "material": 1,
          "mode": 4
        }
      ]
    },
    {
      "name": "planarTrimmedSurface8_aiStandardGreen_0",
      "primitives": [
        {
          "attributes": {
            "NORMAL": 17,
            "POSITION": 16,
            "TEXCOORD_0": 18
          },
          "indices": 19,
          "material": 2,
          "mode": 4
        }
      ]
    },
    {
      "name": "planarTrimmedSurface7_aiStandardGreen_0",
      "primitives": [
        {
          "attributes": {
            "NORMAL": 21,
            "POSITION": 20,
            "TEXCOORD_0": 22
          },
          "indices": 23,
          "material": 2,
          "mode": 4
        }
      ]
    }
  ],
  "nodes": [
    {
      "children": [
        1
      ],
      "matrix": [
        1.0,
        0.0,
        0.0,
        0.0,
        0.0,
        2.220446049250313e-16,
        -1.0,
        0.0,
        0.0,
        1.0,
        2.220446049250313e-16,
        0.0,
        0.0,
        0.0,
        0.0,
        1.0
      ],
      "name": "Sketchfab_model"
    },
    {
      "children": [
        2
      ],
      "matrix": [
        1.0,
        0.0,
        0.0,
        0.0,
        0.0,
        0.0,
        1.0,
        0.0,
        0.0,
        -1.0,
        0.0,
        0.0,
        0.0,
        0.0,
        0.0,
        1.0
      ],
      "name": "b4aeaa2588b7451a991dfdefb7613695.fbx"
    },
    {
      "children": [
        3
      ],
      "name": "Object_2"
    },
    {
      "children": [
        4,
        5,
        7,
        61
      ],
      "name": "RootNode"
    },
    {
      "name": "aiSkyDomeLight1"
    },
    {
      "children": [
        6
      ],
      "name": "PetalLowPoly:pSphere1",
      "scale": [
        0.8048474788665771,
        0.04083748906850815,
        0.8048474788665771
      ]
    },
    {
      "mesh": 0,
      "name": "PetalLowPoly:pSphere1_aiStandardMoon_0"
    },
    {
      "children": [
        8,
        10,
        12,
        13,
        14,
        15,
        16,
        17,
        18,
        19,
        20,
        21,
        22,
        23,
        24,
        25,
        26,
        27,
        28,
        29,
        30,
        31,
        32,
        36,
        39,
        42,
        47,
        50,
        53,
        57
      ],
      "name": "IllustratorCurves1",
      "translation": [
        0.0,
        -11.716553688049316,
        0.0
      ]
    },
    {
      "children": [
        9
      ],
      "name": "CompoundCurve1"
    },
    {
      "name": "curve1",
      "translation": [
        2.0505404472351074,
        0.0,
        0.0
      ]
    },
    {
      "children": [
        11
      ],
      "name": "CompoundCurve2"
    },
    {
      "name": "curve2",
      "translation": [
        2.0505404472351074,
        0.0,
        0.0
      ]
    },
    {
      "name": "CompoundCurve3"
    },
    {
      "name": "CompoundCurve5"
    },
    {
      "name": "CompoundCurve6"
    },
    {
      "name": "CompoundCurve7"
    },
    {
      "name": "CompoundCurve8"
    },
    {
      "name": "CompoundCurve9"
    },
    {
      "name": "CompoundCurve10"
    },
    {
      "name": "CompoundCurve11"
    },
    {
      "name": "CompoundCurve12"
    },
    {
      "name": "CompoundCurve13"
    },
    {
      "name": "CompoundCurve14"
    },
    {
      "name": "CompoundCurve15"
    },
    {
      "name": "CompoundCurve16"
    },
    {
      "name": "CompoundCurve17"
    },
    {
      "name": "CompoundCurve18"
    },
    {
      "name": "CompoundCurve19"
    },
    {
      "name": "CompoundCurve20"
    },
    {
      "name": "CompoundCurve21"
    },
    {
      "name": "CompoundCurve22"
    },
    {
      "name": "CompoundCurve23"
    },
    {
      "children": [
        33,
        35
      ],
      "name": "group18"
    },
    {
      "children": [
        34
      ],
      "name": "CompoundCurve4"
    },
    {
      "name": "curve4",
      "translation": [
        2.0505404472351074,
        0.0,
        0.0
      ]
    },
    {
      "name": "curve3",
      "translation": [
        2.0505404472351074,
        0.0,
        0.0
      ]
    },
    {
      "children": [
        37,
        38
      ],
      "name": "group19"
    },
    {
      "name": "curve15",
      "translation": [
        2.0505404472351074,
        0.0,
        0.0
      ]
    },
    {
      "name": "curve16",
      "translation": [
        2.0505404472351074,
        0.0,
        0.0
      ]
    },
    {
      "children": [
        40,
        41
      ],
      "name": "group20"
    },
    {
      "name": "curve6",
      "translation": [
        2.0505404472351074,
        0.0,
        0.0
      ]
    },
    {
      "name": "curve5",
      "translation": [
        2.0505404472351074,
        0.0,
        0.0
      ]
    },
    {
      "children": [
        43,
        44,
        45,
        46
      ],
      "name": "group21"
    },
    {
      "name": "curve14",
      "translation": [
        1.6985191106796265,
        0.0,
        0.0
      ]
    },
    {
      "name": "curve13",
      "translation": [
        1.6985191106796265,
        0.0,
        0.0
      ]
    },
    {
      "name": "curve11",
      "translation": [
        1.6985191106796265,
        0.0,
        0.0
      ]
    },
    {
      "name": "curve10",
      "translation": [
        1.6985191106796265,
        0.0,
        0.0
      ]
    },
    {
      "children": [
        48,
        49
      ],
      "name": "group22"
    },
    {
      "name": "curve12",
      "translation": [
        0.7279760837554932,
        0.0,
        0.0
      ]
    },
    {
      "name": "curve9",
      "translation": [
        0.7279760837554932,
        0.0,
        0.0
      ]
    },
    {
      "children": [
        51,
        52
      ],
      "name": "group23"
    },
    {
      "name": "curve8",
      "translation": [
        0.7279760837554932,
        0.0,
        0.0
      ]
    },
    {
      "name": "curve7",
      "translation": [
        0.7279760837554932,
        0.0,
        0.0
      ]
    },
    {
      "children": [
        54,
        55,
        56
      ],
      "name": "group24"
    },
    {
      "name": "curve19",
      "translation": [
        0.7279760837554932,
        0.0,
        0.0
      ]
    },
    {
      "name": "curve18",
      "translation": [
        0.7279760837554932,
        0.0,
        0.0
      ]
    },
    {
      "name": "curve17",
      "translation": [
        0.7279760837554932,
        0.0,
        0.0
      ]
    },
    {
      "children": [
        58,
        59,
        60
      ],
      "name": "group25"
    },
    {
      "name": "curve21",
      "translation": [
        0.7279760837554932,
        0.0,
        0.0
      ]
    },
    {
      "name": "curve20",
      "translation": [
        0.7279760837554932,
        0.0,
        0.0
      ]
    },
    {
      "name": "curve22",
      "translation": [
        0.7279760837554932,
        0.0,
        0.0
      ]
    },
    {
      "children": [
        62,
        71
      ],
      "name": "group26"
    },
    {
      "children": [
        63
      ],
      "name": "Seed",
      "translation": [
        0.0,
        0.6401665806770325,
        0.0
      ]
    },
    {
      "children": [
        64
      ],
      "name": "group1"
    },
    {
      "children": [
        65,
        67,
        69
      ],
      "name": "SeedPolygon"
    },
    {
      "children": [
        66
      ],
      "name": "planarTrimmedSurface3"
    },
    {
      "mesh": 1,
      "name": "planarTrimmedSurface3_aiSGreenMain_0"
    },
    {
      "children": [
        68
      ],
      "name": "planarTrimmedSurface4"
    },
    {
      "mesh": 2,
      "name": "planarTrimmedSurface4_aiSGreenMain_0"
    },
    {
      "children": [
        70
      ],
      "name": "planarTrimmedSurface5"
    },
    {
      "mesh": 3,
      "name": "planarTrimmedSurface5_aiSGreenMain_0"
    },
    {
      "children": [
        72,
        74
      ],
      "name": "SepMantra",
      "translation": [
        1.0658141036401503e-14,
        1.7021231651306152,
        0.0
      ]
    },
    {
      "children": [
        73
      ],
      "name": "planarTrimmedSurface8",
      "translation": [
        11.186918258666992,
        -3.613656759262085,
        -1.5485306978225708
      ]
    },
    {
      "mesh": 4,
      "name": "planarTrimmedSurface8_aiStandardGreen_0"
    },
    {
      "children": [
        75
      ],
      "name": "planarTrimmedSurface7",
      "translation": [
        11.186918258666992,
        -3.613656759262085,
        -1.5485306978225708
      ]
    },
    {
      "mesh": 5,
      "name": "planarTrimmedSurface7_aiStandardGreen_0"
    }
  ],
  "scene": 0,
  "scenes": [
    {
      "name": "Sketchfab_Scene",
      "nodes": [
        0
      ]
    }
  ]
}
